HIERARCHY
ROOT Pelvis
{
	OFFSET 0.000000 0.000000 0.000000
	CHANNELS 6 Xposition Yposition Zposition Xrotation Yrotation Zrotation
	JOINT LeftUpLeg_virtual
	{
		OFFSET 0.000000 0.000000 0.000000
		CHANNELS 3 Xrotation Yrotation Zrotation
		JOINT LeftUpLeg
		{
			OFFSET 18.735201 -5.666702 -4.541200
			CHANNELS 3 Xrotation Yrotation Zrotation
			JOINT LeftLeg
			{
				OFFSET -0.021200 -31.938179 0.493100
				CHANNELS 3 Xrotation Yrotation Zrotation
				JOINT LeftFoot
				{
					OFFSET 0.021200 -31.938179 -4.336299
					CHANNELS 3 Xrotation Yrotation Zrotation
					JOINT LeftToeBase
					{
						OFFSET 0.943001 -26.722000 15.023500
						CHANNELS 3 Xrotation Yrotation Zrotation
						End Site
						{
							OFFSET 0 0 0
						}
					}
				}
			}
		}
	}
	JOINT RightUpLeg_virtual
	{
		OFFSET 0.000000 0.000000 0.000000
		CHANNELS 3 Xrotation Yrotation Zrotation
		JOINT RightUpLeg
		{
			OFFSET -18.735201 -5.666702 -4.541200
			CHANNELS 3 Xrotation Yrotation Zrotation
			JOINT RightLeg
			{
				OFFSET 0.018946 -31.938133 0.493100
				CHANNELS 3 Xrotation Yrotation Zrotation
				JOINT RightFoot
				{
					OFFSET -0.018946 -31.938126 -4.336299
					CHANNELS 3 Xrotation Yrotation Zrotation
					JOINT RightToeBase
					{
						OFFSET -0.943001 -26.722004 15.023500
						CHANNELS 3 Xrotation Yrotation Zrotation
						End Site
						{
							OFFSET 0 0 0
						}
					}
				}
			}
		}
	}
	JOINT Hips_virtual
	{
		OFFSET 0.000000 0.000000 0.000000
		CHANNELS 3 Xrotation Yrotation Zrotation
		JOINT Hips
		{
			OFFSET -0.000000 -0.000000 -0.000000
			CHANNELS 3 Xrotation Yrotation Zrotation
			JOINT Spine
			{
				OFFSET 0.000000 10.199997 -0.299500
				CHANNELS 3 Xrotation Yrotation Zrotation
				JOINT Spine1
				{
					OFFSET 0.000000 11.900002 -1.516600
					CHANNELS 3 Xrotation Yrotation Zrotation
					JOINT Spine2
					{
						OFFSET 0.000000 13.600006 -2.842500
						CHANNELS 3 Xrotation Yrotation Zrotation
						JOINT Neck_virtual
						{
							OFFSET 0.000000 0.000000 0.000000
							CHANNELS 3 Xrotation Yrotation Zrotation
							JOINT Neck
							{
								OFFSET 0.000000 9.624100 -2.890100
								CHANNELS 3 Xrotation Yrotation Zrotation
								JOINT Head
								{
									OFFSET 0.000000 14.068802 -1.351900
									CHANNELS 3 Xrotation Yrotation Zrotation
									End Site
									{
										OFFSET 0 0 0
									}
								}
							}
						}
						JOINT LeftShoulder_virtual
						{
							OFFSET 0.000000 0.000000 0.000000
							CHANNELS 3 Xrotation Yrotation Zrotation
							JOINT LeftShoulder
							{
								OFFSET 15.263000 10.923401 -0.547700
								CHANNELS 3 Xrotation Yrotation Zrotation
								JOINT LeftArm
								{
									OFFSET 25.438599 -2.830597 -13.032500
									CHANNELS 3 Xrotation Yrotation Zrotation
									JOINT LeftForeArm
									{
										OFFSET 29.960503 0.000000 0.000000
										CHANNELS 3 Xrotation Yrotation Zrotation
										JOINT LeftHand
										{
											OFFSET 27.849251 0.000000 0.000000
											CHANNELS 3 Xrotation Yrotation Zrotation
											End Site
											{
												OFFSET 0 0 0
											}
										}
									}
								}
							}
						}
						JOINT RightShoulder_virtual
						{
							OFFSET 0.000000 0.000000 0.000000
							CHANNELS 3 Xrotation Yrotation Zrotation
							JOINT RightShoulder
							{
								OFFSET -15.263000 10.923401 -0.547700
								CHANNELS 3 Xrotation Yrotation Zrotation
								JOINT RightArm
								{
									OFFSET -25.438599 -2.830597 -13.032500
									CHANNELS 3 Xrotation Yrotation Zrotation
									JOINT RightForeArm
									{
										OFFSET -29.960503 0.000000 0.000000
										CHANNELS 3 Xrotation Yrotation Zrotation
										JOINT RightHand
										{
											OFFSET -27.849251 0.000000 0.000000
											CHANNELS 3 Xrotation Yrotation Zrotation
											End Site
											{
												OFFSET 0 0 0
											}
										}
									}
								}
							}
						}
					}
				}
			}
		}
	}
}
MOTION
Frames: 11
Frame Time: 0.03333333
-6.785881 80.141411 0.338673 0.000000 0.000000 0.000000 -8.719781 0.683636 0.956610 -41.601251 -2.041451 15.382867 72.477610 -6.431281 -0.848681 -22.394640 -0.797897 -14.396394 0.000000 0.000000 0.000000 -8.779853 1.350724 1.366373 -36.000691 1.798425 -23.680418 79.026545 -2.412216 5.492135 -40.125377 10.388760 10.635135 0.000000 0.000000 0.000000 -8.631578 1.623591 1.313326 -0.854057 -0.025437 -0.017955 18.849044 1.363162 3.131895 13.778357 -4.299580 2.458747 0.000000 0.000000 0.000000 16.358686 -1.081013 1.146663 4.364900 -1.147663 1.198734 0.000000 0.000000 0.000000 16.771678 -1.534881 1.095269 0.441198 -20.329754 0.534733 -23.834073 6.315258 -71.791954 167.247277 -68.430197 169.877842 0.000000 0.000000 0.000000 13.792172 -0.527703 -0.170030 19.328655 9.589312 7.398730 -42.331914 13.242867 70.235955 77.175728 46.647009 -100.895261 0.000000 0.000000 0.000000 
-7.028012 80.501389 0.851240 0.000000 0.000000 0.000000 -9.560846 0.578295 0.963555 -39.801930 -2.040465 15.217632 71.712902 -6.398388 -0.609560 -22.639258 -0.743347 -14.232071 0.000000 0.000000 0.000000 -9.538614 1.339007 1.283276 -34.386301 1.411707 -23.194491 78.421602 -2.742933 5.397181 -40.104996 10.071431 10.496626 0.000000 0.000000 0.000000 -9.574276 1.432796 1.152492 -0.842124 -0.037273 0.001106 17.670779 1.357639 2.924655 13.551725 -4.352346 2.210813 0.000000 0.000000 0.000000 16.389874 -1.106015 1.034858 4.297156 -1.334601 1.333179 0.000000 0.000000 0.000000 16.397746 -1.635291 0.944774 1.122281 -21.502602 1.305625 -21.565812 5.183933 -72.548610 159.365539 -69.305813 161.864009 0.000000 0.000000 0.000000 13.285797 -0.568814 -0.410939 20.415634 10.279755 7.875481 -41.397380 10.934437 70.197891 72.997018 43.417767 -98.186039 0.000000 0.000000 0.000000 
-7.303885 80.998383 1.385553 0.000000 0.000000 0.000000 -10.512345 0.520939 0.953836 -37.681614 -2.018397 15.039877 70.584684 -6.354903 -0.396527 -22.765852 -0.629818 -13.843675 0.000000 0.000000 0.000000 -10.485782 1.354867 1.243769 -32.209014 0.901758 -22.698093 77.385736 -3.056355 5.297318 -40.000757 9.703431 10.576236 0.000000 0.000000 0.000000 -10.617240 1.258268 1.040531 -0.827177 -0.051154 0.000706 16.443482 1.196491 2.625915 13.386186 -4.363361 2.099315 0.000000 0.000000 0.000000 16.335278 -1.104358 1.002295 3.969193 -1.490591 1.354415 0.000000 0.000000 0.000000 16.156449 -1.663963 1.033817 1.617175 -22.229047 2.258398 -19.045909 2.816981 -73.011710 150.365522 -70.058808 152.932280 0.000000 0.000000 0.000000 12.948962 -0.558693 -0.504524 21.143933 10.751140 8.816246 -40.822726 11.051190 69.705359 69.116747 40.878778 -95.232686 0.000000 0.000000 0.000000 
-7.547620 81.532104 1.889574 0.000000 0.000000 0.000000 -11.474013 0.525585 0.955519 -35.500721 -1.981794 14.848263 69.210792 -6.305609 -0.233824 -22.711004 -0.451020 -13.339902 0.000000 0.000000 0.000000 -11.483823 1.428918 1.262632 -29.803991 0.351629 -22.324268 76.006523 -3.273091 5.226833 -39.736538 9.347366 10.882393 0.000000 0.000000 0.000000 -11.639182 1.135897 1.009958 -0.807279 -0.061046 -0.012486 15.358396 0.868772 2.226933 13.300512 -4.328150 2.104930 0.000000 0.000000 0.000000 16.095303 -1.065253 1.057890 3.370774 -1.613626 1.256222 0.000000 0.000000 0.000000 16.022376 -1.629256 1.305159 1.861273 -22.435401 2.988313 -16.821518 0.439104 -73.303236 141.581215 -70.095834 144.485740 0.000000 0.000000 0.000000 12.851616 -0.508894 -0.480006 21.535358 10.855786 10.295376 -40.302105 12.441257 69.279449 65.446094 38.997283 -92.042837 0.000000 0.000000 0.000000 
-7.718712 82.027641 2.310860 0.000000 0.000000 0.000000 -12.379836 0.628717 0.974454 -33.519860 -1.950302 14.661395 67.848210 -6.279518 -0.115722 -22.515258 -0.211381 -12.833507 0.000000 0.000000 0.000000 -12.446599 1.571222 1.331976 -27.490482 -0.261678 -22.145767 74.544698 -3.394227 5.281839 -39.531680 8.984701 11.275880 0.000000 0.000000 0.000000 -12.554689 1.138688 1.068331 -0.804390 -0.070072 -0.022658 14.475838 0.464704 1.799858 13.242553 -4.251869 2.190223 0.000000 0.000000 0.000000 15.632942 -0.980153 1.194570 2.563858 -1.697021 1.060814 0.000000 0.000000 0.000000 15.921022 -1.522763 1.630015 1.901757 -22.220105 3.241051 -14.735949 -1.254276 -73.516038 134.055658 -69.564220 137.539683 0.000000 0.000000 0.000000 12.922713 -0.443256 -0.414349 21.625917 10.437994 12.208844 -39.200788 14.228782 68.763271 62.467448 37.824423 -89.304730 0.000000 0.000000 0.000000 
-7.808935 82.430283 2.643408 0.000000 0.000000 0.000000 -13.168529 0.848334 0.995512 -31.878317 -1.958680 14.518137 66.714180 -6.299435 -0.028235 -22.267055 0.069855 -12.424239 0.000000 0.000000 0.000000 -13.295598 1.801461 1.412722 -25.474852 -0.901180 -22.152327 73.199370 -3.428153 5.477936 -39.503625 8.611528 11.660029 0.000000 0.000000 0.000000 -13.332792 1.312568 1.170439 -0.816306 -0.071163 -0.025219 13.738975 0.065519 1.444951 13.139809 -4.107014 2.270062 0.000000 0.000000 0.000000 14.981567 -0.829779 1.367009 1.677585 -1.756377 0.792616 0.000000 0.000000 0.000000 15.765905 -1.348299 1.888076 1.776971 -21.752447 2.861712 -12.679014 -2.496291 -73.575214 127.079098 -68.990648 131.299240 0.000000 0.000000 0.000000 13.074935 -0.318195 -0.341928 21.530703 9.591342 14.137597 -37.251080 15.817504 67.899443 60.711250 37.527324 -87.439508 0.000000 0.000000 0.000000 
-7.832351 82.739120 2.909466 0.000000 0.000000 0.000000 -13.793245 1.173529 1.007919 -30.642056 -2.035845 14.454277 65.875583 -6.382504 0.032996 -22.041331 0.358478 -12.200747 0.000000 0.000000 0.000000 -13.962986 2.109847 1.456429 -23.894423 -1.537094 -22.297767 72.146913 -3.395616 5.780908 -39.638559 8.282771 11.954293 0.000000 0.000000 0.000000 -13.946279 1.699982 1.259498 -0.839242 -0.066732 -0.024551 13.123753 -0.308429 1.234555 12.872060 -3.872136 2.277340 0.000000 0.000000 0.000000 14.216066 -0.606599 1.523900 0.858133 -1.799103 0.482453 0.000000 0.000000 0.000000 15.504628 -1.119235 2.029737 1.495839 -21.345142 1.769804 -10.626261 -3.559745 -73.197054 120.658352 -68.484271 125.594693 0.000000 0.000000 0.000000 13.220156 -0.116206 -0.310118 21.352570 8.518970 15.640397 -34.793680 17.021876 66.688690 59.985788 37.846884 -86.533060 0.000000 0.000000 0.000000 
-7.831902 82.991486 3.133228 0.000000 0.000000 0.000000 -14.239919 1.573608 1.005267 -29.732032 -2.162898 14.486824 65.295318 -6.528085 0.067403 -21.862640 0.606033 -12.163127 0.000000 0.000000 0.000000 -14.442486 2.469420 1.458685 -22.724702 -2.092599 -22.478877 71.405332 -3.307261 6.099916 -39.765604 8.042151 12.184986 0.000000 0.000000 0.000000 -14.389716 2.247943 1.318939 -0.859133 -0.058994 -0.031859 12.599508 -0.637432 1.188007 12.394578 -3.555467 2.203223 0.000000 0.000000 0.000000 13.433773 -0.311219 1.637226 0.213038 -1.827500 0.173037 0.000000 0.000000 0.000000 15.054468 -0.851641 2.020274 1.107514 -21.146665 0.249511 -8.369486 -4.884249 -72.078235 115.249211 -67.967089 120.816648 0.000000 0.000000 0.000000 13.206231 0.172722 -0.309443 21.119128 7.403664 16.566289 -32.439560 18.227639 65.236803 60.071712 38.509136 -86.388069 0.000000 0.000000 0.000000 
-7.830135 83.212120 3.343035 0.000000 0.000000 0.000000 -14.502271 1.956627 0.988972 -29.071836 -2.321603 14.604319 64.867720 -6.703220 0.066230 -21.682847 0.793958 -12.242548 0.000000 0.000000 0.000000 -14.729035 2.841489 1.441418 -21.824548 -2.454622 -22.592922 70.760814 -3.179181 6.313376 -39.712598 7.947278 12.400202 0.000000 0.000000 0.000000 -14.664167 2.810875 1.339330 -0.868182 -0.051040 -0.050839 12.199785 -0.994628 1.273295 11.754215 -3.172137 2.069863 0.000000 0.000000 0.000000 12.726252 0.036353 1.693127 -0.184363 -1.845398 -0.098607 0.000000 0.000000 0.000000 14.428904 -0.566121 1.901374 0.655470 -21.196715 -1.455993 -5.950440 -6.614431 -70.296778 111.082679 -67.363731 117.186990 0.000000 0.000000 0.000000 13.014954 0.545061 -0.291310 20.949949 6.417367 17.012512 -30.449977 19.563468 63.873334 60.328985 39.049499 -86.400288 0.000000 0.000000 0.000000 
-7.841863 83.430580 3.519529 0.000000 0.000000 0.000000 -14.611800 2.271223 0.981431 -28.563701 -2.471830 14.771319 64.485578 -6.877712 0.026610 -21.449403 0.905014 -12.369421 0.000000 0.000000 0.000000 -14.864947 3.150266 1.427450 -21.037524 -2.657472 -22.595751 70.014227 -3.058172 6.405316 -39.562635 7.974937 12.552375 0.000000 0.000000 0.000000 -14.790513 3.266972 1.352188 -0.859513 -0.058609 -0.072545 11.983960 -1.433337 1.425370 11.008428 -2.765288 1.948854 0.000000 0.000000 0.000000 12.141033 0.418093 1.726197 -0.347416 -1.847867 -0.300654 0.000000 0.000000 0.000000 13.663485 -0.277291 1.735500 0.178627 -21.416111 -3.114094 -3.449222 -8.646038 -68.244853 107.965422 -66.798950 114.551479 0.000000 0.000000 0.000000 12.630774 0.953804 -0.238309 20.841670 5.611343 17.258472 -28.916801 20.957901 62.675073 60.331191 39.230281 -86.196571 0.000000 0.000000 0.000000 
-7.884313 83.639954 3.665106 0.000000 0.000000 0.000000 -14.622281 2.481581 0.998752 -28.152129 -2.557009 14.945977 64.114781 -7.047735 -0.044667 -21.119981 0.932951 -12.484054 0.000000 0.000000 0.000000 -14.903819 3.357369 1.447779 -20.244479 -2.780724 -22.491142 69.096352 -2.984530 6.424647 -39.470598 8.039417 12.601976 0.000000 0.000000 0.000000 -14.823329 3.536267 1.387400 -0.841168 -0.079026 -0.076015 11.965422 -1.956869 1.552576 10.238969 -2.357898 1.903655 0.000000 0.000000 0.000000 11.663309 0.801286 1.791771 -0.336741 -1.825622 -0.419957 0.000000 0.000000 0.000000 12.787351 0.019745 1.592177 -0.239210 -21.626264 -4.432818 -1.038804 -10.711466 -66.459708 104.752077 -66.354755 111.870972 0.000000 0.000000 0.000000 12.052236 1.371835 -0.119328 20.766797 4.961325 17.550490 -27.676760 22.167167 61.593881 60.255553 39.049499 -85.824079 0.000000 0.000000 0.000000 
